<?xml version="1.0" encoding="UTF-8"?>
<!DOCTYPE svg PUBLIC "-//W3C//DTD SVG 1.1//EN" "http://www.w3.org/Graphics/SVG/1.1/DTD/svg11.dtd">
<!-- Creator: CorelDRAW 2020 (64-Bit) -->
<svg xmlns="http://www.w3.org/2000/svg" xml:space="preserve" width="86.9019mm" height="25.8769mm" version="1.1" style="shape-rendering:geometricPrecision; text-rendering:geometricPrecision; image-rendering:optimizeQuality; fill-rule:evenodd; clip-rule:evenodd"
viewBox="0 0 8690.18 2587.69"
 xmlns:xlink="http://www.w3.org/1999/xlink"
 xmlns:xodm="http://www.corel.com/coreldraw/odm/2003">
 <defs>
  <style type="text/css">
   <![CDATA[
    .fil0 {fill:url(#id0);fill-rule:nonzero}
   ]]>
  </style>
  <linearGradient id="id0" gradientUnits="userSpaceOnUse" x1="403.91" y1="2586.83" x2="403.95" y2="158.27">
   <stop offset="0" style="stop-opacity:1; stop-color:#0064A9"/>
   <stop offset="1" style="stop-opacity:1; stop-color:#68ACD7"/>
  </linearGradient>
 </defs>
 <g id="Слой_x0020_1">
  <metadata id="CorelCorpID_0Corel-Layer"/>
  <path class="fil0" d="M3809 1308.68c0.08,35.08 -6.84,77.55 -18.33,128.12 -2.02,8.93 -4.91,21.33 -11.08,36.61l-765.89 1.65 22.12 -96.22c91.16,-3.22 158.81,-8.3 203.99,-16.32 137.69,-24.43 206.36,-70.6 206.22,-137.74 -0.11,-50.35 -15.08,-87.37 -45.51,-110.89 -30.43,-23.52 -65.8,-35.25 -106.74,-35.16 -107.29,0.23 -195.68,46.24 -265.75,137.72 -70.31,91.78 -105.01,194.69 -104.76,309.15 0.18,86.95 29.55,152.25 88.47,196.54 50.4,37.88 116.72,56.91 199.82,56.73 93.64,-0.2 187.72,-28.89 283.23,-85.28 31.46,-18.58 70.59,-47.33 117.64,-87.2l113.16 137.06c-61.32,39.74 -116.04,68.35 -162.91,87.29 -146.45,59.19 -307.41,89.88 -482.29,90.25 -172.4,0.37 -307.11,-32.82 -405.17,-99.83 -97.56,-66.69 -146.09,-163.61 -146.36,-290.18 -0.35,-166.17 80.29,-304.1 243.46,-412.27 150.81,-99.97 324.64,-149.49 521.23,-149.91 135.81,-0.29 251.2,25.5 344.97,77.14 112.98,62.22 170.24,149.8 170.48,262.74zm768 900.12l-159.74 369.43 -4417.25 9.46 1379.24 -2583.98 1731.78 -3.71 -1001.22 1852.74c-17.22,31.88 -25.35,65.62 -25.27,100.46 0.12,58.85 32.46,108.11 93.34,152.34 97.09,70.55 259.43,107.85 490.3,107.35l1908.83 -4.09zm211.28 198.21c-0.06,-27.92 12.47,-54.94 37.82,-81.07 25.33,-26.24 61.22,-46.18 107.64,-60.04 46.42,-13.85 98.12,-20.89 155.48,-21.01 88.61,-0.19 161.05,15.25 217.72,46.3 56.67,31.15 84.97,70.41 85.07,118.08 0.1,48.09 -28.39,87.98 -85.32,119.69 -57.11,31.7 -128.91,47.64 -215.61,47.83 -53.62,0.11 -104.79,-6.41 -153.52,-19.44 -48.55,-13.04 -85.65,-32.21 -111.09,-57.63 -25.45,-25.3 -38.11,-56.24 -38.19,-92.71zm159.12 4.14c0.07,31.48 13.85,55.59 41.34,72.24 27.7,16.75 61.56,25.03 101.99,24.94 40.25,-0.09 74.09,-8.51 101.32,-25.38 27.24,-16.77 40.92,-41.15 40.85,-73.03 -0.06,-31.07 -13.85,-54.98 -41.16,-71.63 -27.3,-16.75 -61.18,-25.03 -101.43,-24.94 -40.43,0.09 -74.25,8.51 -101.88,25.38 -27.41,16.77 -41.1,40.94 -41.03,72.42zm1099.26 155.64l-154.59 0.33 -0.34 -161.67c-0.07,-34.23 -3.52,-56.32 -10.11,-66.3 -6.8,-10.06 -17.54,-17.78 -32.6,-23.36 -15.06,-5.56 -33.12,-8.28 -54.17,-8.23 -27.08,0.06 -51.35,4.08 -72.77,12.08 -21.6,7.99 -36.26,18.61 -44.13,31.67 -8.06,13.16 -11.96,37.42 -11.89,72.87l0.31 143.43 -154.59 0.33 -0.67 -317.22 143.3 -0.31 0.1 46.55c51.27,-35.66 115.74,-53.53 193.8,-53.69 34.23,-0.08 65.64,3.22 94.05,9.78 28.61,6.66 50.07,15.08 64.56,25.33 14.7,10.35 24.88,22.05 30.56,35.18 5.86,13.13 8.71,31.87 8.76,56.32l0.42 196.91zm138.37 -117.04l-0.18 -83.74 304.69 -0.65 0.17 83.74 -304.68 0.65zm394.09 115.9l-0.94 -437.63 154.59 -0.33 0.94 437.63 -154.59 0.33zm312.76 -360.68l-0.17 -77.62 154.59 -0.33 0.17 77.62 -154.59 0.33zm0.77 360.01l-0.68 -317.22 154.59 -0.33 0.68 317.22 -154.59 0.33zm846.15 -1.81l-154.58 0.33 -0.35 -161.67c-0.07,-34.23 -3.52,-56.32 -10.11,-66.3 -6.8,-10.07 -17.54,-17.78 -32.6,-23.36 -15.06,-5.57 -33.12,-8.28 -54.17,-8.24 -27.08,0.06 -51.35,4.08 -72.77,12.08 -21.6,8 -36.26,18.62 -44.13,31.68 -8.06,13.15 -11.96,37.41 -11.88,72.86l0.3 143.43 -154.58 0.33 -0.68 -317.22 143.31 -0.3 0.09 46.55c51.27,-35.66 115.74,-53.53 193.8,-53.7 34.23,-0.07 65.64,3.23 94.05,9.79 28.62,6.66 50.07,15.07 64.57,25.32 14.7,10.36 24.87,22.06 30.55,35.19 5.86,13.12 8.71,31.87 8.76,56.32l0.42 196.91zm494.99 -101.3l154.64 13.72c-19.69,30.71 -51.05,54.1 -93.7,70.29 -42.85,16.09 -96.43,24.25 -160.57,24.39 -101.75,0.22 -177.21,-17.66 -226.01,-53.62 -38.61,-28.84 -58.05,-65.27 -58.15,-109.38 -0.11,-52.56 25.19,-93.88 75.71,-123.73 50.54,-29.95 114.65,-44.97 192.14,-45.14 86.88,-0.18 155.56,15.26 206.03,46.32 50.28,31.06 74.46,78.79 72.35,143.18l-387.07 0.83c1.18,24.85 13.65,44.18 37.55,57.99 23.73,13.8 53.45,20.66 88.83,20.59 24.26,-0.06 44.56,-3.67 60.9,-10.83 16.55,-7.17 28.93,-18.71 37.35,-34.61zm8.85 -84.98c-1.18,-24.35 -12.69,-42.87 -34.72,-55.45 -22.03,-12.68 -48.74,-18.95 -80.35,-18.88 -33.66,0.07 -61.49,6.85 -83.47,20.25 -21.97,13.39 -32.64,31.65 -32.23,54.57l230.77 -0.49zm-3103.94 -1318.14c-27.24,27.43 -51.94,56.32 -79.21,82.43 -55.7,53.34 -113.19,96.57 -167.16,133.12 -54.39,36.86 -109.67,74.4 -166.57,113.62 -56.41,38.89 -81.42,62.88 -75.51,72.14 42.62,66.84 73.45,110.35 93.31,130.3 42.29,42.51 90.06,63.77 142.76,63.65 28.53,-0.06 63.93,-11.34 106.59,-34.55 13.7,-7.45 32.21,-19.88 56.36,-36.71l63.49 109.64c-58.8,51.99 -107.31,89.87 -144.87,114.78 -114.78,76.12 -216.81,114.78 -307.97,114.98 -67.6,0.14 -124.34,-17.75 -170.03,-52.26 -38.78,-29.28 -79.93,-83.35 -125,-162.14 -15.94,-27.85 -34.2,-41.05 -52.19,-41.01 -9.29,0.01 -22.97,5.26 -42.13,16.11 -18.62,10.55 -31.82,17.1 -39.03,20.65l-414.44 204.88 -72.83 -128.38 423.06 -238.76c28.82,-16.27 44.4,-27.08 47.68,-29.89 9.1,-7.81 13.61,-16.82 13.58,-27.4 -0.02,-9.23 -4.03,-22.43 -13.72,-38.99 -48.19,-82.36 -101.29,-188.36 -155.1,-319.93 -17.26,-42.19 -38.66,-99.72 -66.1,-171.34l383.25 -0.82c19.94,47.14 37.7,83.99 51.09,111.94 37.7,78.71 73.6,145.08 110.81,196.49 6.95,9.61 56.33,-18.52 146.8,-82.72 30.27,-21.49 79.34,-50.37 135.6,-100.85l178.87 -160.52 138.61 141.54zm1882.04 -631.11l-363.99 1467.4 -491.78 1.05 121.88 -423.5c2.2,-7.66 5.24,-17.61 7.38,-29.81 2.14,-12.16 3.68,-21.33 3.67,-27.38 -0.04,-16.78 -5.64,-25.09 -16.18,-25.07 -10.55,0.02 -20.86,6.3 -31.59,18.37 -2.88,3.23 -6.75,10.27 -13.6,20.59 -29.63,44.67 -58.11,89.95 -90.26,132.81 -76.73,102.29 -160.61,183.64 -246.29,247.61 -119.26,89.03 -237.23,132.97 -353.83,133.22 -112.87,0.24 -203.94,-36.16 -271.85,-109.05 -68.2,-73.19 -102.7,-172.76 -102.97,-299.48 -0.11,-51.72 8.32,-118.03 22.53,-199.05 4.78,-27.29 11.79,-64.28 24.57,-109.83l222.79 -794.5 491.78 -1.05 -243.09 876.95c-1.24,4.53 -4.64,19.13 -9.83,43.42 -5.24,24.57 -7.96,46.59 -7.91,66.4 0.09,44.16 11.29,79.25 33.09,105.17 21.72,25.84 60.86,38.74 116.67,38.62 112.24,-0.24 231.45,-97.81 357.82,-293.51 90.58,-140.3 181.36,-321.47 266.12,-545.1 36.73,-96.92 69.04,-195.36 103.56,-293.27l471.31 -1.01zm1669.45 -3.58l-806.06 939.86c-35.86,41.81 -59.34,74.46 -72.35,96.32 -21.59,36.29 -31.47,71 -31.41,102.9 0.02,6.19 1.24,15.46 5.02,27.51 24.94,79.38 78.4,118.84 158.4,118.66l453.32 -0.97 -42.39 187.6 -1459.83 3.12 947.59 -1161.84c16.14,-19.79 28.29,-35.25 35.87,-45.88 23.95,-33.59 35.27,-54.23 33.98,-61.78 -1.84,-10.73 -9.95,-17.26 -24.85,-19.44 -15.49,-2.29 -38.46,-3.26 -70.7,-3.19l-573.02 1.23 65.35 -181.14 1381.08 -2.96z"/>
 </g>
</svg>
